<?xml version="1.0" encoding="utf-8"?>
<!-- Generator: Adobe Illustrator 26.1.0, SVG Export Plug-In . SVG Version: 6.00 Build 0)  -->
<svg version="1.1" id="Capa_1" xmlns="http://www.w3.org/2000/svg" xmlns:xlink="http://www.w3.org/1999/xlink" x="0px" y="0px"
	 viewBox="0 0 1005.71 265.49" style="enable-background:new 0 0 1005.71 265.49;" xml:space="preserve">
<style type="text/css">
	.st0{fill:#FFFFFF;}
</style>
<g>
	<g>
		<g>
			<path class="st0" d="M297.46,156.03c0-3.65-1.29-6.59-3.88-8.81c-2.59-2.22-7.12-4.31-13.6-6.26
				c-11.31-3.26-19.86-7.13-25.64-11.61c-5.79-4.48-8.68-10.61-8.68-18.4s3.32-14.15,9.95-19.08c6.63-4.94,15.1-7.41,25.41-7.41
				c10.44,0,18.94,2.77,25.51,8.32c6.57,5.55,9.74,12.39,9.53,20.52l-0.13,0.39h-18.46c0-4.39-1.47-7.95-4.4-10.67
				c-2.94-2.72-7.06-4.08-12.36-4.08c-5.09,0-9.03,1.13-11.81,3.39c-2.78,2.26-4.18,5.15-4.18,8.68c0,3.22,1.49,5.86,4.47,7.93
				c2.98,2.07,8.12,4.25,15.43,6.56c10.48,2.91,18.42,6.76,23.81,11.55c5.39,4.79,8.09,11.07,8.09,18.86
				c0,8.13-3.21,14.55-9.62,19.25c-6.42,4.7-14.89,7.05-25.41,7.05c-10.35,0-19.38-2.66-27.08-7.99s-11.44-12.8-11.22-22.41
				l0.13-0.39h18.53c0,5.65,1.73,9.8,5.19,12.43c3.46,2.63,8.27,3.95,14.45,3.95c5.18,0,9.13-1.07,11.87-3.2
				C296.09,162.44,297.46,159.59,297.46,156.03z"/>
			<path class="st0" d="M397.93,160.33h-33.34l-6.46,20.49h-19.25l32.69-95h19.51l32.56,95h-19.25L397.93,160.33z M369.28,145.39
				h23.94l-11.74-37.32h-0.39L369.28,145.39z"/>
			<path class="st0" d="M473.4,85.82l24.21,70.01h0.39l24.4-70.01h24.92v95h-19.05V152.5l1.83-41.95l-0.39-0.07l-25.45,70.33h-12.79
				l-25.31-70.07l-0.39,0.07l1.83,41.69v28.32h-19.05v-95H473.4z"/>
			<path class="st0" d="M646.8,100.5h-26.88v80.32h-19.05V100.5h-26.75V85.82h72.68V100.5z"/>
			<path class="st0" d="M731.86,139.06h-39.34v27.08h46v14.68h-65.05v-95h64.92v14.68h-45.87v23.88h39.34V139.06z"/>
			<path class="st0" d="M837.94,148.46l0.13,0.39c0.17,10.22-2.95,18.33-9.36,24.34c-6.42,6-15.32,9-26.72,9
				c-11.44,0-20.73-3.68-27.86-11.03c-7.13-7.35-10.7-16.81-10.7-28.38v-18.86c0-11.53,3.48-20.99,10.44-28.38
				c6.96-7.4,16.01-11.09,27.14-11.09c11.74,0,20.92,3.01,27.53,9.04c6.61,6.03,9.83,14.23,9.66,24.63l-0.13,0.39h-18.53
				c0-6.26-1.5-11.06-4.5-14.39c-3-3.33-7.68-4.99-14.03-4.99c-5.7,0-10.22,2.31-13.57,6.94c-3.35,4.63-5.02,10.53-5.02,17.7v18.97
				c0,7.26,1.76,13.2,5.28,17.83c3.52,4.63,8.29,6.94,14.29,6.94c5.96,0,10.36-1.6,13.21-4.8c2.85-3.2,4.27-7.95,4.27-14.26H837.94z
				"/>
			<path class="st0" d="M944.47,180.82h-18.99v-39.47h-38.76v39.47h-19.05v-95h19.05v40.84h38.76V85.82h18.99V180.82z"/>
		</g>
	</g>
	<g>
		<path class="st0" d="M91.39,96.89c21.18-7.67,44.48-10.67,74.99-13.94l13.75-1.25c2.39-0.08,4.51-0.15,6.13-0.21
			c3.66-0.14,6.56-3.2,6.56-6.93v-45.1c0-1.87-0.75-3.67-2.06-4.97c-1.27-1.26-2.97-1.96-4.74-1.96c-0.07,0-0.13,0-0.2,0.01
			c-1.91,0.06-3.79,0.14-5.68,0.22c-51.51,2.03-84.4,10.62-110.15,23.27c-7.69,3.78-23.8,16.15-24.51,30.29
			c-0.01,0.12-0.01,0.24-0.01,0.35l0,44.94v1.44c0,0.15-0.01,0.3,0,0.45c0.5,7.95,6.24,21.29,19.95,25.48
			c2.75,0.84,5.43,1.58,8.03,2.31c-8.88-3.47-15.2-12.5-15.2-22.74c0-5.91,2.06-11.36,5.54-15.53c1.55-1.78,3.36-3.61,5.45-5.26
			c2.49-1.98,4.85-3.34,6.42-4.14l0.16-0.09c5.02-2.53,10.09-4.69,15.28-6.58"/>
		<path class="st0" d="M146.88,170.63c-21.18,7.67-44.48,10.67-74.99,13.94l-13.75,1.25c-2.39,0.08-4.51,0.15-6.13,0.21
			c-3.66,0.14-6.56,3.2-6.56,6.93v45.1c0,1.87,0.75,3.67,2.06,4.97c1.27,1.26,2.97,1.96,4.74,1.96c0.07,0,0.13,0,0.2-0.01
			c1.91-0.06,3.79-0.14,5.68-0.22c51.51-2.03,84.4-10.62,110.15-23.27c7.69-3.78,23.8-16.15,24.51-30.29
			c0.01-0.12,0.01-0.24,0.01-0.35l0-44.94v-1.44c0-0.15,0.01-0.3,0-0.45c-0.5-7.95-6.24-21.29-19.95-25.48
			c-2.75-0.84-5.43-1.58-8.03-2.31c8.88,3.47,15.2,12.5,15.2,22.74c0,5.91-2.06,11.36-5.54,15.53c-1.55,1.78-3.36,3.61-5.45,5.26
			c-2.49,1.98-4.85,3.34-6.42,4.14l-0.16,0.09c-5.02,2.53-10.09,4.69-15.28,6.58"/>
	</g>
</g>
</svg>
